#!OML:ASF F:\VICON\USERDATA\INSTALL\rory3\rory3.ASF
:FULLY-SPECIFIED
:DEGREES
2206
root 1.21381 15.5727 -7.75115 -209.256 223.282 -177.688
lowerback 26.0222 0.981215 0.0194571
upperback 13.2635 0.710924 1.04417
thorax 0.27489 0.0636065 0.94128
lowerneck -7.39699 2.29983 -2.1456
upperneck -0.697578 3.14711 4.49297
head 0.928803 1.64148 1.87128
rclavicle -2.89232e-014 -1.51076e-014
rhumerus -4.9991 32.3257 -72.7498
rradius 55.5059
rwrist 7.62186
rhand -38.2591 6.98352
rfingers 7.12502
rthumb -11.2891 -22.6927
lclavicle -2.89232e-014 -1.51076e-014
lhumerus 6.12964 -45.5581 69.5057
lradius 35.3975
lwrist -6.2087
lhand -28.8029 19.7328
lfingers 7.12502
lthumb -2.16135 49.7016
rfemur -41.925 -17.7408 8.45553
rtibia 89.6143
rfoot 24.472 -9.24642
rtoes 20.6557
lfemur -35.9942 21.3386 -7.45864
ltibia 74.9186
lfoot 20.0716 0.927461
ltoes -7.42511
2207
root 1.21362 15.5611 -7.72741 -209.106 223.436 -177.712
lowerback 25.8603 0.940741 0.123665
upperback 13.287 0.680147 1.05704
thorax 0.378711 0.0524631 0.904052
lowerneck -7.44975 2.4128 -2.17053
upperneck -0.846479 3.30292 4.54704
head 0.883885 1.71916 1.89602
rclavicle 3.00165e-014 -4.77083e-015
rhumerus -4.80134 32.4765 -72.6672
rradius 55.4479
rwrist 7.46409
rhand -38.1768 7.02117
rfingers 7.12502
rthumb -11.2098 -22.6593
lclavicle 3.00165e-014 -4.77083e-015
lhumerus 6.02338 -45.4755 69.6799
lradius 35.0472
lwrist -6.0314
lhand -28.6617 20.1567
lfingers 7.12502
lthumb -2.025 50.1268
rfemur -42.0762 -17.7021 8.56351
rtibia 89.7198
rfoot 24.1754 -9.25148
rtoes 21.1321
lfemur -35.7702 21.524 -7.43003
ltibia 74.6237
lfoot 20.4054 2.01436
ltoes -5.32172
2208
root 1.21798 15.5577 -7.71126 -209.149 223.469 -177.67
lowerback 25.8958 0.894695 0.156613
upperback 13.3658 0.619539 1.01063
thorax 0.452768 0.0224299 0.850011
lowerneck -7.72542 2.52866 -2.08531
upperneck -0.885747 3.45104 4.60061
head 0.913988 1.79589 1.90776
rclavicle -3.69739e-014 -7.95139e-015
rhumerus -4.55905 32.5628 -72.6035
rradius 55.3946
rwrist 7.36026
rhand -38.1103 7.2442
rfingers 7.12502
rthumb -11.1457 -22.4398
lclavicle -3.69739e-014 -7.95139e-015
lhumerus 5.96733 -45.2524 69.7803
lradius 34.7755
lwrist -6.05338
lhand -28.3432 20.2453
lfingers 7.12502
lthumb -1.71734 50.2181
rfemur -41.972 -17.7699 8.48367
rtibia 89.7849
rfoot 23.8584 -9.36544
rtoes 21.7954
lfemur -35.3415 21.6218 -7.45248
ltibia 74.2674
lfoot 20.6887 2.8551
ltoes -3.99086
2209
root 1.22435 15.5783 -7.6898 -209.355 223.654 -177.432
lowerback 25.7987 0.910606 0.146021
upperback 13.4755 0.626098 0.925884
thorax 0.622371 0.0250693 0.763213
lowerneck -7.85954 2.6457 -1.93698
upperneck -1.0645 3.59887 4.58219
head 0.877057 1.86829 1.87955
rclavicle 9.05464e-014 -1.51076e-014
rhumerus -4.34576 32.6591 -72.5498
rradius 55.3148
rwrist 7.32303
rhand -38.1623 7.52361
rfingers 7.12502
rthumb -11.1958 -22.1577
lclavicle 9.05464e-014 -1.51076e-014
lhumerus 5.8676 -45.1077 69.8722
lradius 34.6003
lwrist -5.84411
lhand -28.113 20.3003
lfingers 7.12502
lthumb -1.4951 50.2748
rfemur -41.7667 -17.6735 8.30356
rtibia 89.7109
rfoot 23.6261 -9.34809
rtoes 21.8763
lfemur -34.6747 21.8049 -7.50921
ltibia 73.8099
lfoot 20.965 3.6649
ltoes -3.30291
2210
root 1.23116 15.5906 -7.68074 -209.593 223.609 -177.166
lowerback 25.9408 0.930771 -0.107114
upperback 13.496 0.591746 0.900878
thorax 0.576784 -0.00692841 0.888198
lowerneck -7.85231 2.78857 -1.8573
upperneck -1.27476 3.78811 4.54101
head 0.803855 1.95943 1.85336
rclavicle 5.10877e-014 -1.51076e-014
rhumerus -4.19189 32.7632 -72.456
rradius 55.2197
rwrist 7.27047
rhand -38.1313 7.73123
rfingers 7.12502
rthumb -11.1659 -21.9517
lclavicle 5.10877e-014 -1.51076e-014
lhumerus 5.7319 -45.123 70.0469
lradius 34.3716
lwrist -5.50159
lhand -28.1442 20.3755
lfingers 7.12502
lthumb -1.52521 50.3498
rfemur -41.5803 -17.7245 7.99424
rtibia 89.6816
rfoot 23.4041 -9.27236
rtoes 21.6144
lfemur -34.1207 21.7713 -7.72264
ltibia 73.36
lfoot 21.1708 4.26488
ltoes -2.5722
